<?xml version="1.0" encoding="UTF-8"?>
<!DOCTYPE svg PUBLIC "-//W3C//DTD SVG 1.1//EN" "http://www.w3.org/Graphics/SVG/1.1/DTD/svg11.dtd">
<!-- Creator: CorelDRAW 2019 (64 Bit) -->
<svg xmlns="http://www.w3.org/2000/svg" xml:space="preserve" width="825px" height="712px" version="1.1" style="shape-rendering:geometricPrecision; text-rendering:geometricPrecision; image-rendering:optimizeQuality; fill-rule:evenodd; clip-rule:evenodd"
viewBox="0 0 175.5 151.57"
 xmlns:xlink="http://www.w3.org/1999/xlink">
 <defs>
  <style type="text/css">
   <![CDATA[
    .fil0 {fill:none}
    .fil1 {fill:#B87800;fill-rule:nonzero}
    .fil2 {fill:white;fill-rule:nonzero}
   ]]>
  </style>
 </defs>
 <g id="Camada_x0020_1">
  <metadata id="CorelCorpID_0Corel-Layer"/>
  <polygon class="fil0" points="0,0 175.5,0 175.5,151.57 0,151.57 "/>
  <g id="_2614702752320">
   <path class="fil1" d="M105.7 33.04l0 20.03 -17.47 -11.77 8.43 0 4.16 2.8 0 -6.83 -26.15 0 0 1.7 30.9 20.81 0.13 8.74 -35.9 0 0 -20.45 17.46 11.78 -8.42 0 -4.17 -2.81 0 6.84 26.15 0 0 -1.61 -31.02 -20.91 0 -8.74 35.9 0 0 0.42zm-0.84 18.46l0 -18.05 -34.23 0 0 7.47 31.02 20.91 0 2.88 -27.81 0 0 -9.23 5.25 3.53 5.45 0 -13.91 -9.37 0 18.05 34.23 0 -0.12 -7.46 -30.9 -20.82 0 -2.98 27.81 0 0 9.24 -5.25 -3.54 -5.45 0 13.91 9.37z"/>
   <path class="fil2" d="M147.81 94.89l0 -18.51 2.13 0 7.49 11.33 7.52 -11.33 2.09 0 0 18.51 -2.26 0 0 -14.46 -7.35 10.95 -7.35 -10.95 0 14.46 -2.27 0zm-10.54 0l-1.44 0 -8.92 -18.51 2.5 0 7.14 14.83 7.15 -14.83 2.54 0 -8.97 18.51zm-21.84 0l0 -16.38 -7.8 0 0 -2.13 17.89 0 0 2.13 -7.79 0 0 16.38 -2.3 0zm-24.73 0l0 -18.51 1.21 0 12.02 13.83 0 -13.83 2.3 0 0 18.51 -1.18 0 -12.04 -13.84 0 13.84 -2.31 0zm-38.64 0l0 -18.51 2.13 0 7.49 11.33 7.52 -11.33 2.09 0 0 18.51 -2.26 0 0 -14.46 -7.35 10.95 -7.35 -10.95 0 14.46 -2.27 0zm-12.21 0.44c-2.78,0 -5.07,-0.91 -6.87,-2.74 -1.81,-1.82 -2.71,-4.14 -2.71,-6.95 0,-2.82 0.9,-5.14 2.72,-6.97 1.81,-1.82 4.09,-2.74 6.86,-2.74 2.77,0 5.06,0.92 6.89,2.75 1.82,1.83 2.73,4.15 2.73,6.96 0,2.81 -0.91,5.13 -2.73,6.95 -1.81,1.83 -4.11,2.74 -6.89,2.74zm0 -2.16c2.08,0 3.8,-0.71 5.17,-2.13 1.36,-1.42 2.04,-3.22 2.04,-5.4 0,-2.19 -0.68,-4 -2.03,-5.42 -1.36,-1.42 -3.09,-2.13 -5.18,-2.13 -2.08,0 -3.8,0.72 -5.17,2.14 -1.36,1.43 -2.04,3.23 -2.04,5.41 0,2.18 0.68,3.98 2.04,5.4 1.37,1.42 3.09,2.13 5.17,2.13zm48.36 1.72l-14.36 0 0 -2.05 8.79 -7.21 -8.79 -7.24 0 -2.01 14.36 0 0 2.18 -11.21 0 8.49 7.07 -8.49 7.08 11.21 0 0 2.18zm-79.75 0l0 -18.51 2.13 0 7.48 11.33 7.53 -11.33 2.09 0 0 18.51 -2.27 0 0 -14.46 -7.35 10.95 -7.35 -10.95 0 14.46 -2.26 0zm99.23 20.79l1.34 -1.99c1.31,1.02 2.67,1.79 4.08,2.33 1.42,0.53 2.82,0.8 4.21,0.8 1.71,0 3.1,-0.36 4.16,-1.09 1.07,-0.73 1.61,-1.66 1.61,-2.8 0,-0.9 -0.39,-1.65 -1.15,-2.23 -0.77,-0.59 -1.83,-0.93 -3.18,-1.05 -0.33,-0.03 -0.8,-0.07 -1.41,-0.1 -3.04,-0.21 -5.12,-0.57 -6.23,-1.07 -0.86,-0.42 -1.51,-0.95 -1.96,-1.61 -0.45,-0.65 -0.67,-1.39 -0.67,-2.2 0,-1.49 0.66,-2.72 2,-3.69 1.33,-0.96 3.05,-1.44 5.18,-1.44 1.54,0 3.07,0.25 4.57,0.76 1.51,0.51 2.94,1.27 4.29,2.26l-1.34 1.93c-1.15,-0.92 -2.34,-1.62 -3.6,-2.09 -1.26,-0.46 -2.55,-0.69 -3.88,-0.69 -1.4,0 -2.55,0.27 -3.46,0.81 -0.9,0.55 -1.36,1.23 -1.36,2.05 0,0.32 0.08,0.62 0.22,0.89 0.14,0.26 0.37,0.52 0.67,0.76 0.76,0.56 2.41,0.93 4.94,1.08 1.16,0.07 2.06,0.14 2.7,0.22 1.87,0.21 3.36,0.81 4.46,1.81 1.1,1 1.64,2.22 1.64,3.67 0,1.73 -0.75,3.15 -2.25,4.27 -1.51,1.12 -3.48,1.68 -5.92,1.68 -1.84,0 -3.56,-0.27 -5.14,-0.8 -1.59,-0.54 -3.09,-1.36 -4.52,-2.47zm-8.58 2.82l-1.44 0 -8.92 -18.51 2.5 0 7.14 14.84 7.15 -14.84 2.54 0 -8.97 18.51zm-27.37 0l0 -18.51 10.62 0c1.8,0 3.21,0.45 4.24,1.34 1.04,0.89 1.56,2.12 1.56,3.67 0,1.61 -0.5,2.91 -1.5,3.9 -1,1 -2.33,1.49 -3.99,1.49l-8.63 0 0 8.11 -2.3 0zm2.3 -10.27l8.17 0c1.17,0 2.05,-0.26 2.64,-0.77 0.6,-0.51 0.9,-1.27 0.9,-2.26 0,-0.97 -0.3,-1.73 -0.9,-2.27 -0.59,-0.54 -1.43,-0.81 -2.52,-0.81l-8.29 0 0 6.11zm-14.49 10.72c-2.77,0 -5.06,-0.92 -6.87,-2.75 -1.8,-1.82 -2.7,-4.14 -2.7,-6.95 0,-2.82 0.9,-5.14 2.72,-6.97 1.8,-1.82 4.09,-2.74 6.85,-2.74 2.77,0 5.07,0.92 6.89,2.76 1.82,1.83 2.73,4.15 2.73,6.95 0,2.81 -0.91,5.13 -2.72,6.95 -1.81,1.83 -4.12,2.75 -6.9,2.75zm0.01 -2.17c2.08,0 3.8,-0.71 5.17,-2.13 1.36,-1.42 2.04,-3.22 2.04,-5.4 0,-2.19 -0.68,-4 -2.04,-5.41 -1.35,-1.42 -3.08,-2.13 -5.17,-2.13 -2.08,0 -3.8,0.71 -5.17,2.14 -1.36,1.42 -2.04,3.23 -2.04,5.4 0,2.18 0.68,3.98 2.04,5.4 1.37,1.42 3.09,2.13 5.17,2.13z"/>
  </g>
 </g>
</svg>
