<?xml version="1.0" encoding="UTF-8"?>
<!DOCTYPE svg PUBLIC "-//W3C//DTD SVG 1.1//EN" "http://www.w3.org/Graphics/SVG/1.1/DTD/svg11.dtd">
<!-- Creator: CorelDRAW 2019 (64 Bit) -->
<svg xmlns="http://www.w3.org/2000/svg" xml:space="preserve" width="319px" height="319px" version="1.1" style="shape-rendering:geometricPrecision; text-rendering:geometricPrecision; image-rendering:optimizeQuality; fill-rule:evenodd; clip-rule:evenodd"
viewBox="0 0 102.92 102.9"
 xmlns:xlink="http://www.w3.org/1999/xlink">
 <defs>
  <style type="text/css">
   <![CDATA[
    .fil0 {fill:#B87800;fill-rule:nonzero}
   ]]>
  </style>
 </defs>
 <g id="Camada_x0020_1">
  <metadata id="CorelCorpID_0Corel-Layer"/>
  <path class="fil0" d="M102.9 1.19l0 57.42 -50.06 -33.75 24.15 0 11.94 8.05 0 -19.6 -74.96 0 0 4.88 88.55 59.66 0.4 25.05 -102.92 0 0 -58.61 50.06 33.75 -24.14 0 -11.95 -8.05 0 19.6 74.96 0 0 -4.6 -88.93 -59.95 0 -25.04 102.9 0 0 1.19zm-2.38 52.94l0 -51.74 -98.13 0 0 21.39 88.92 59.94 0 8.26 -79.72 0 0 -26.47 15.05 10.14 15.62 0 -39.87 -26.88 0 51.75 98.11 0 -0.33 -21.39 -88.58 -59.67 0 -8.53 79.72 0 0 26.46 -15.05 -10.14 -15.62 0 39.88 26.88z"/>
 </g>
</svg>
