<?xml version="1.0" standalone="no"?><!-- Generator: Gravit.io --><svg xmlns="http://www.w3.org/2000/svg" xmlns:xlink="http://www.w3.org/1999/xlink" style="isolation:isolate" viewBox="0 0 1280 800" width="1280" height="800"><defs><clipPath id="_clipPath_ckkM6itl2gm1mKhAcFGF3HShrRQdVtPc"><rect width="1280" height="800"/></clipPath></defs><g clip-path="url(#_clipPath_ckkM6itl2gm1mKhAcFGF3HShrRQdVtPc)"><path d=" M 1230.989 40.803 C 1136.446 66.678 1041.888 1.118 947.35 18.395 C 930.575 21.322 916.167 41.009 915.354 58.109 C 911.682 133.989 908.024 210.021 904.351 286.216 C 903.529 303.445 916.583 310.207 933.344 305.674 C 1027.892 279.803 1122.449 345.359 1216.988 328.086 C 1233.772 325.169 1248.171 305.473 1248.979 288.368 C 1252.656 212.493 1256.309 136.456 1259.987 60.266 C 1260.814 43.051 1247.764 36.284 1230.989 40.803 Z  M 1084.954 149.181 C 1081.009 167.467 1078.728 183.821 1078.245 197.727 C 1078.236 198.463 1078.422 209.098 1079.45 255.559 C 1079.469 256.157 1079.489 256.745 1079.517 257.333 C 1079.513 259.37 1078.958 260.781 1077.853 261.613 C 1076.782 262.407 1075.324 262.584 1073.511 262.125 C 1071.249 261.565 1067.749 260.967 1063.096 260.389 C 1058.185 259.782 1054.618 259.222 1052.189 258.672 C 1048.22 257.764 1047.082 251.939 1046.484 246.335 C 1046.168 243.298 1045.867 241.4 1045.633 240.214 C 1044.695 240.687 1043.256 241.448 1041.075 242.705 C 1035.753 245.794 1030.737 248.066 1026.161 249.457 C 1018.988 251.748 1011.738 252.465 1004.632 251.662 C 987.365 249.692 972.866 242.796 961.538 229.985 C 950.879 217.863 945.782 203.585 946.389 186.044 C 947.073 166.467 953.327 148.769 964.986 135.16 C 977.266 120.943 993.232 114.435 1012.441 117.132 C 1026.099 119.035 1038.025 126.333 1047.856 137.962 C 1049.061 139.693 1050.611 141.836 1052.6 144.485 C 1052.863 143.524 1053.198 142.194 1053.599 140.358 C 1054.694 135.38 1056.215 130.895 1059.902 131.765 C 1062.388 132.363 1066.769 134.06 1073.277 137.011 C 1082.626 141.42 1085.586 143.729 1085.495 146.512 C 1085.471 146.957 1085.375 147.574 1084.954 149.181 Z  M 1151.389 100.429 C 1148.42 131.612 1146.507 158.878 1145.709 181.449 C 1145.369 191.434 1145.006 206.76 1144.618 227.016 C 1144.264 247.033 1143.901 262.349 1143.533 272.54 C 1143.394 276.461 1141.046 277.479 1138.899 277.097 C 1130.722 275.648 1122.55 273.95 1114.373 272.1 C 1112.101 271.588 1109.71 269.623 1109.863 265.721 C 1110.208 255.688 1110.824 240.616 1111.714 220.469 C 1112.599 200.352 1113.211 185.241 1113.574 175.142 C 1113.88 166.109 1113.918 152.136 1113.675 133.596 C 1113.426 115.057 1113.469 101.036 1113.775 91.96 C 1113.875 88.924 1115.893 87.489 1119.045 88.178 C 1120.618 88.522 1122.999 89.172 1126.16 90.081 C 1129.144 90.951 1131.387 91.511 1132.879 91.793 C 1134.462 92.094 1136.785 92.405 1139.889 92.692 C 1146.23 93.28 1148.965 93.28 1150.615 95.332 C 1151.131 95.987 1151.719 97.101 1151.562 98.731 C 1151.519 99.31 1151.456 99.87 1151.389 100.429 Z  M 1215.682 188.364 C 1214.42 201.71 1213.664 211.852 1213.43 218.552 C 1213.205 224.821 1213 234.189 1212.832 246.646 C 1212.655 259.146 1212.459 268.494 1212.244 274.706 C 1212.115 278.479 1209.638 280.157 1207.362 280.396 C 1199.017 281.295 1190.668 281.601 1182.319 281.434 C 1180.425 281.396 1177.269 280.291 1177.508 273.625 C 1177.714 267.748 1178.183 258.773 1178.876 246.976 C 1179.593 235.217 1180.052 226.251 1180.258 220.312 C 1180.497 213.77 1180.358 203.709 1179.828 190.415 C 1179.321 177.069 1179.172 166.898 1179.407 160.179 C 1179.488 157.96 1180.903 155.679 1184.648 155.718 C 1186.317 155.727 1188.736 155.952 1192.079 156.315 C 1195.154 156.645 1197.468 156.727 1198.993 156.626 C 1200.524 156.53 1202.876 156.157 1205.951 155.44 C 1209.322 154.656 1211.804 154.096 1213.545 153.843 C 1216.318 153.441 1218.054 155.029 1217.958 157.97 C 1217.719 164.66 1216.954 174.883 1215.682 188.364 Z  M 1199.443 143.533 C 1182.716 144.361 1179.56 133.764 1179.832 125.644 C 1180.019 120.212 1182.324 115.779 1186.694 112.236 C 1190.644 108.965 1195.364 107.2 1200.744 106.818 C 1206.104 106.435 1210.728 107.564 1214.511 110.366 C 1218.398 113.225 1220.263 117.343 1220.077 122.799 C 1219.776 130.981 1215.964 142.233 1199.443 143.533 Z " fill="rgb(74,20,140)"/><g><path d=" M 151.113 130.335 C 144.863 130.335 135.658 130.522 122.962 130.895 C 110.548 131.268 101.128 131.454 94.955 131.454 C 88.504 131.454 78.648 131.268 65.67 130.895 C 52.405 130.522 42.779 130.335 36.252 130.335 C 32.402 130.335 30.083 132.43 30.054 136.002 L 30.093 137.919 C 30.155 152.561 30.083 163.78 29.878 171.307 C 29.481 200.146 28.998 220.116 28.443 230.669 C 27.903 241.008 26.487 256.802 24.235 277.618 C 21.983 298.443 20.562 314.324 20.012 324.82 C 19.912 326.762 20.419 328.34 21.524 329.502 C 22.714 330.76 24.493 331.396 26.803 331.396 C 33.603 331.396 43.989 331.209 57.67 330.846 C 71.595 330.463 81.651 330.286 88.413 330.286 C 112.241 330.286 130.016 331.118 141.248 332.777 C 144.031 333.17 145.825 333.356 146.872 333.356 C 149.88 333.356 152.022 331.874 152.978 328.947 C 154.341 322.477 155.269 317.485 155.661 314.444 C 155.886 313.698 156.512 311.551 157.521 308.055 C 158.492 305.038 159.004 302.738 159.099 301.006 C 159.2 298.917 158.764 297.382 157.746 296.315 C 157.167 295.708 156.13 294.991 154.466 294.991 L 151.807 295.153 C 121.776 297.382 103.28 298.501 96.8 298.501 L 81.436 298.625 C 69.62 298.625 66.483 296.99 65.651 296.258 C 64.384 295.187 62.356 291.648 62.964 280.019 L 64.049 259.318 C 64.37 253.101 64.527 250.175 64.475 248.664 C 65.044 246.234 66.411 245.115 69.041 244.919 C 73.111 244.556 82.885 244.374 98.096 244.374 C 116.22 244.374 127.979 244.652 133.09 245.197 C 142.788 246.091 144.94 246.187 145.705 246.187 C 151.544 246.187 152.347 242.849 152.424 241.405 C 152.577 238.435 153.165 233.859 154.164 227.819 C 155.197 221.617 155.804 216.916 155.957 213.837 C 156.044 212.302 155.642 211.044 154.772 210.136 C 154.107 209.438 152.835 208.601 150.54 208.825 C 142.869 209.557 136.113 210.031 130.441 210.217 C 115.995 210.863 99.445 211.197 81.245 211.197 L 76.382 211.197 C 74.368 211.288 72.819 211.331 71.724 211.331 C 67.597 211.331 67.181 209.581 67 208.825 C 66.942 208.529 66.78 207.004 67.167 199.572 L 68.257 178.733 C 68.769 168.963 70.414 165.984 71.342 165.081 C 72.264 164.182 75.186 162.68 84.32 162.68 C 92.382 162.68 104.533 163.13 120.428 164.005 C 136.409 164.894 148.55 165.334 156.507 165.334 C 159.855 165.334 161.964 163.278 162.141 159.854 C 162.308 156.717 161.739 149.085 160.405 136.58 C 160.218 134.247 158.741 130.335 151.113 130.335 Z " fill="rgb(255,111,0)"/><path d=" M 281.038 189.65 C 271.512 189.65 261.389 192.777 250.807 199.027 C 244.15 203.632 238.46 207.687 233.817 211.111 C 232.956 206.611 232.463 202.097 232.329 197.607 C 232.047 193.719 230.087 193.146 228.944 193.146 C 228.571 193.146 228.059 193.146 212.7 195.627 C 202.624 197.263 197.249 198.119 196.236 198.291 C 193.118 199.243 192.663 201.485 192.611 202.418 C 192.582 203.082 192.711 203.886 192.984 204.818 C 196.25 221.321 197.374 239.626 196.355 259.213 C 195.963 266.672 195.265 277.752 194.261 292.471 C 193.252 307.218 192.563 318.293 192.166 325.662 C 192.071 327.465 192.52 328.895 193.496 329.923 C 194.132 330.607 195.317 331.41 197.326 331.41 C 200.3 331.41 204.757 331.453 210.715 331.549 C 216.693 331.639 221.178 331.678 224.172 331.678 C 225.329 331.678 229.116 331.266 229.403 325.915 L 233.802 241.974 C 233.903 240.047 235.696 235.815 246.58 229.201 C 254.733 224.233 261.002 221.722 265.2 221.722 C 274.367 221.722 280.526 224.003 283.482 228.465 C 286.04 232.396 287.068 239.506 286.542 249.563 C 286.346 253.297 286.102 258.883 285.81 266.309 C 285.509 273.716 285.27 279.282 285.074 282.998 C 284.83 287.651 284.323 294.627 283.558 303.909 C 282.788 313.277 282.281 320.244 282.042 324.83 C 281.923 327.202 282.387 328.914 283.472 330.071 C 284.06 330.678 285.088 331.405 286.743 331.405 C 289.818 331.405 294.384 331.453 300.477 331.544 C 306.588 331.635 311.202 331.678 314.287 331.678 C 317.414 331.678 319.466 329.626 319.638 326.341 C 319.963 320.077 320.355 310.738 320.824 298.324 C 321.283 285.939 321.684 276.619 322.009 270.378 C 322.158 267.399 322.469 262.938 322.913 257.003 C 323.372 251.002 323.669 246.555 323.822 243.657 C 324.73 226.332 322.913 214.043 318.265 206.095 C 311.924 195.187 299.401 189.65 281.038 189.65 Z " fill="rgb(255,111,0)"/><path d=" M 441.213 194.824 L 407.639 194.824 C 407.013 194.824 406.731 194.705 406.664 194.628 C 406.573 194.532 406.415 194.131 406.468 193.294 C 406.678 189.258 407.304 183.113 408.328 174.998 C 409.37 166.788 410.006 160.519 410.221 156.363 C 410.379 153.317 408.467 151.242 405.186 150.811 C 380.129 146.431 379.23 146.431 378.699 146.431 C 372.516 146.431 372.024 155.828 371.851 158.902 C 371.651 162.752 371.464 168.514 371.301 176.184 C 371.134 183.802 370.948 189.464 370.761 193.179 C 370.675 194.776 370.259 196.479 366.314 196.66 C 364.1 196.756 361.843 196.794 359.141 196.837 C 354.134 197.698 352.838 200.959 352.509 202.824 C 351.968 205.861 351.61 208.83 351.466 211.652 C 351.136 217.964 351.366 224.548 355.626 225.577 L 356.124 225.648 C 359.504 225.739 362.943 225.773 366.223 225.782 C 368.748 225.969 369.551 226.877 369.417 229.426 C 369.006 237.335 368.188 249.347 366.983 265.123 C 365.778 281.028 364.956 293.078 364.545 300.911 C 364.023 310.962 366.357 318.786 371.483 324.194 C 377.088 330.09 386.044 333.088 398.118 333.088 C 415.037 333.088 427.269 331.223 435.484 327.412 C 437.392 326.532 438.602 325.629 439.348 324.433 C 439.668 323.835 439.946 322.936 440.214 320.483 C 440.371 319.187 440.797 316.385 441.486 312.029 C 442.074 308.347 442.404 305.53 442.523 303.378 C 442.609 301.671 442.232 300.399 441.371 299.491 C 440.874 298.974 439.984 298.348 438.583 298.348 C 435.68 298.348 431.405 298.984 425.519 300.294 C 420.048 301.509 415.917 302.125 413.21 302.125 C 407.233 302.125 403.546 300.232 401.949 296.315 C 401.136 294.388 400.275 290.075 400.772 280.578 L 401.867 259.739 C 402.489 247.865 403.206 238.54 404 232.066 C 404.411 228.728 404.775 227.03 405.009 226.193 C 408.624 226.246 413.808 226.495 420.45 226.949 C 427.972 227.451 433.705 227.714 437.497 227.714 C 443.231 227.714 443.877 223.951 443.944 222.803 C 444.02 221.383 444.073 219.217 444.144 216.29 C 444.207 213.435 444.269 211.312 444.345 209.93 C 444.383 209.155 444.546 207.63 445.091 204.708 C 445.574 202.04 445.828 200.237 445.895 199.027 C 445.971 197.602 445.392 196.684 444.895 196.149 C 444.058 195.283 442.829 194.824 441.213 194.824 Z " fill="rgb(255,111,0)"/><path d=" M 552.139 192.314 C 546.248 192.314 541.279 192.911 537.425 194.078 C 532.801 195.345 528.172 197.311 523.634 199.95 L 513.104 206.425 C 512.918 205.483 512.717 203.886 512.631 201.213 C 512.535 198.487 512.377 193.409 510.025 191.453 L 506.988 190.812 C 506.644 190.912 504.616 191.381 493.307 193.461 C 487.029 194.202 482.161 194.762 478.698 195.144 L 478.101 195.283 C 475.217 196.378 474.677 198.564 474.615 199.769 C 474.586 200.347 474.663 201.064 474.878 202.16 C 478.359 215.845 479.526 234.304 478.34 256.984 C 477.938 264.63 477.221 276.04 476.193 291.232 C 475.165 306.453 474.452 317.834 474.05 325.404 C 473.95 327.297 474.419 328.794 475.437 329.88 C 476.413 330.898 477.771 331.419 479.473 331.419 C 482.361 331.419 486.723 331.467 492.576 331.558 C 498.457 331.649 502.857 331.692 505.759 331.692 C 509.202 331.692 511.369 329.43 511.565 325.643 C 511.837 320.411 512.043 312.392 512.181 301.767 C 512.311 291.213 512.516 283.246 512.798 278.082 L 513.602 262.689 C 514.395 247.411 516.198 241.189 517.571 238.674 C 520.708 232.902 527.751 229.99 538.511 229.99 C 540.471 229.99 543.403 230.196 547.242 230.607 C 551.24 231.033 554.305 231.253 556.347 231.253 C 557.662 231.253 560.823 230.751 561.65 226.155 C 563.51 217.677 564.725 208.127 565.261 197.789 C 565.318 196.703 564.945 195.704 564.17 194.901 C 562.482 193.079 558.877 192.314 552.139 192.314 Z " fill="rgb(255,111,0)"/><path d=" M 653.286 186.58 C 633.838 186.58 616.795 194.322 602.646 209.595 C 589.261 224.223 581.959 241.62 580.921 261.307 C 579.764 283.423 585.565 301.413 598.165 314.769 C 610.78 328.125 628.43 334.896 650.661 334.896 C 672.677 334.896 691.379 327.312 706.232 312.368 C 708.436 310.164 709.278 308.868 709.33 307.605 C 709.378 306.821 709.416 306.31 704.749 296.306 C 700.12 286.422 699.915 286.245 699.379 285.762 C 698.485 285.025 697.308 284.93 696.39 284.93 L 695.568 284.93 L 690.293 289.028 C 677.966 298.19 664.538 302.824 650.388 302.824 C 642.383 302.824 634.928 300.217 628.215 295.063 C 621.926 290.242 618.239 284.695 617.011 278.178 C 687.544 272.898 699.398 270.976 702.186 269.957 C 709.206 267.265 712.974 261.895 713.4 253.995 C 714.356 235.532 709.172 219.618 697.992 206.702 C 686.511 193.356 671.467 186.58 653.286 186.58 Z  M 649.924 218.222 C 656.959 218.222 662.989 220.914 668.368 226.456 C 673.528 231.764 675.972 237.665 675.814 244.436 C 675.149 244.723 673.49 245.254 669.564 245.79 C 650.393 248.554 633.776 249.964 620.157 249.964 C 618.12 249.964 617.608 249.534 617.666 249.534 C 618.086 241.496 621.525 234.423 628.172 227.896 C 634.804 221.388 641.91 218.222 649.924 218.222 Z " fill="rgb(255,111,0)"/><path d=" M 873.168 192.806 C 872.652 192.572 871.671 192.122 857.823 189.492 C 844.032 186.857 842.942 186.857 842.401 186.857 C 838.753 186.857 838.193 191.902 837.902 197.516 C 837.825 198.86 837.801 200.897 837.854 203.632 C 837.892 205.23 837.902 206.559 837.892 207.62 C 837.878 207.611 837.868 207.592 837.858 207.577 C 828.993 195.125 816.321 188.804 800.187 188.804 C 782.116 188.804 766.847 195.761 754.825 209.481 C 743.602 222.239 737.424 237.933 736.472 256.123 C 735.545 274.103 740.317 289.496 750.675 301.853 C 761.539 314.759 776.138 321.306 794.051 321.306 C 808.674 321.306 821.447 316.16 832.101 305.989 C 832.082 309.418 831.126 320.455 831.063 321.731 C 830.643 329.846 827.219 335.867 820.601 340.137 C 814.738 343.972 807.35 345.909 798.632 345.909 C 785.047 345.909 771.495 341.968 758.455 334.255 C 757.336 333.533 756.327 333.174 755.366 333.174 C 754.323 333.174 751.837 333.586 750.957 337.378 C 747.184 353.038 746.094 357.103 745.859 357.753 L 745.615 358.528 C 745.606 358.566 745.606 358.609 745.606 358.633 L 745.568 359.652 L 745.792 359.877 C 746.361 361.679 748.164 363.061 749.627 364.013 C 762.591 372.252 780.083 376.417 801.621 376.417 C 824.12 376.417 841.101 370.526 852.075 358.887 C 855.867 354.918 859.062 350.136 861.649 344.574 C 864.097 339.3 865.995 333.318 867.344 326.652 C 868.08 323.003 868.649 319.168 869.051 315.113 C 869.276 312.89 870.366 301.934 870.495 299.591 C 871.078 288.401 872.04 271.598 873.412 249.175 C 874.765 226.743 875.746 209.921 876.334 198.721 C 876.559 194.647 874.335 193.217 873.168 192.806 Z  M 802.19 292.208 C 792.932 292.208 785.807 288.597 780.399 281.152 C 775.364 274.276 773.068 265.936 773.561 256.382 C 774.068 246.603 777.233 238.177 782.938 231.344 C 789.188 223.831 796.787 220.173 806.207 220.173 C 815.656 220.173 822.867 223.75 828.271 231.081 C 833.21 237.861 835.463 246.287 834.946 256.128 C 834.449 265.711 831.212 274.079 825.306 281.013 C 818.994 288.55 811.429 292.208 802.19 292.208 Z " fill="rgb(255,111,0)"/></g><path d=" M 1015.091 147.966 C 1005.455 146.555 997.531 149.477 990.837 156.64 C 984.4 163.498 980.972 172.143 980.618 181.932 C 980.288 191.673 983.109 200.185 989.034 207.616 C 995.217 215.425 1002.887 219.685 1012.523 221.029 C 1021.881 222.334 1029.642 220.096 1036.255 213.789 C 1042.443 207.898 1045.752 200.185 1046.092 190.683 C 1046.436 180.851 1043.768 171.651 1038.163 163.421 C 1032.229 154.57 1024.688 149.386 1015.091 147.966 Z " fill="rgb(74,20,140)"/><path d=" M 933.865 246.727 C 930.699 243.241 926.53 241.328 922.125 241.328 C 915.373 241.328 907.646 246.354 906.608 257.367 C 892.559 406.648 876.625 575.837 830.485 721.796 C 828.319 728.644 829.404 735.974 833.383 741.421 C 836.548 745.744 841.192 748.23 846.112 748.23 C 851.449 748.23 858.163 745.093 860.955 736.256 C 908.688 585.205 924.794 414.252 938.967 263.435 C 939.584 257.056 937.714 250.973 933.865 246.727 Z " fill="rgb(74,20,140)"/><path d=" M 838.829 696.581 L 832.302 719.118 C 834.172 719.041 836.06 719.008 837.983 719.008 C 870.074 719.008 896.112 729.471 896.112 742.415 C 896.112 755.331 870.074 765.828 837.983 765.828 C 805.863 765.828 779.849 755.35 779.849 742.415 C 779.849 734.783 788.94 728.06 802.931 723.79 C 803.39 723.67 803.826 723.517 804.246 723.379 C 804.658 723.269 805.031 723.116 805.451 723.006 L 805.313 722.967 C 810.683 720.811 814.351 716.746 814.351 712.05 C 814.351 705.112 806.456 699.469 796.686 699.469 C 795.008 699.469 793.425 699.694 791.904 699.99 C 754.921 706.891 728.946 723.087 728.946 741.98 C 728.946 767.152 775.01 787.547 831.814 787.547 C 888.619 787.547 934.687 767.138 934.687 741.98 C 934.659 717.865 892.339 698.187 838.829 696.581 Z " fill="rgb(74,20,140)"/></g></svg>